<?xml version="1.0" encoding="UTF-8" standalone="no"?>
<!DOCTYPE svg PUBLIC "-//W3C//DTD SVG 1.1//EN" "http://www.w3.org/Graphics/SVG/1.1/DTD/svg11.dtd">
<svg version="1.1" xmlns="http://www.w3.org/2000/svg" xmlns:xlink="http://www.w3.org/1999/xlink" preserveAspectRatio="xMidYMid meet" viewBox="0 0 640 640" width="640" height="640"><defs><path d="M217.23 188.01C217.23 220.84 190.73 247.49 158.1 247.49C125.46 247.49 98.96 220.84 98.96 188.01C98.96 155.18 125.46 128.53 158.1 128.53C190.73 128.53 217.23 155.18 217.23 188.01Z" id="a6s03QniF"></path><path d="M251.72 253.83C251.72 266.26 242.1 276.36 230.25 276.36C218.4 276.36 208.78 266.26 208.78 253.83C208.78 241.4 218.4 231.3 230.25 231.3C242.1 231.3 251.72 241.4 251.72 253.83Z" id="e1MPcmROUV"></path><path d="M236.58 218.46C236.58 222.44 233.19 225.67 229.02 225.67C224.84 225.67 221.45 222.44 221.45 218.46C221.45 214.48 224.84 211.24 229.02 211.24C233.19 211.24 236.58 214.48 236.58 218.46Z" id="a1FiuwKZ2I"></path><path d="M198.01 253.83C198.01 257.81 194.62 261.05 190.45 261.05C186.27 261.05 182.88 257.81 182.88 253.83C182.88 249.85 186.27 246.61 190.45 246.61C194.62 246.61 198.01 249.85 198.01 253.83Z" id="c1oalY3Ap5"></path><path d="M277.24 185.2C277.24 199.57 265.8 211.24 251.72 211.24C237.63 211.24 226.2 199.57 226.2 185.2C226.2 170.82 237.63 159.15 251.72 159.15C265.8 159.15 277.24 170.82 277.24 185.2Z" id="be04j1byN"></path><path d="M260.87 226.2C260.87 230.47 257.56 233.94 253.48 233.94C249.4 233.94 246.09 230.47 246.09 226.2C246.09 221.93 249.4 218.46 253.48 218.46C257.56 218.46 260.87 221.93 260.87 226.2Z" id="a2n0nxNm8x"></path><path d="M229.02 156.66C229.02 160.64 225.63 163.87 221.45 163.87C217.27 163.87 213.88 160.64 213.88 156.66C213.88 152.67 217.27 149.44 221.45 149.44C225.63 149.44 229.02 152.67 229.02 156.66Z" id="bwcb4xjmP"></path><path d="M211.59 236.41C211.59 239.22 209.35 241.51 206.58 241.51C203.81 241.51 201.56 239.22 201.56 236.41C201.56 233.59 203.81 231.3 206.58 231.3C209.35 231.3 211.59 233.59 211.59 236.41Z" id="a1KLITT32x"></path></defs><g><g><g><g><filter id="shadow9740743" x="89.96" y="119.53" width="137.26" height="137.96" filterUnits="userSpaceOnUse" primitiveUnits="userSpaceOnUse"><feFlood></feFlood><feComposite in2="SourceAlpha" operator="in"></feComposite><feGaussianBlur stdDeviation="1"></feGaussianBlur><feOffset dx="1" dy="1" result="afterOffset"></feOffset><feFlood flood-color="#000000" flood-opacity="0.5"></feFlood><feComposite in2="afterOffset" operator="in"></feComposite><feMorphology operator="dilate" radius="1"></feMorphology><feComposite in2="SourceAlpha" operator="out"></feComposite></filter><path d="M217.23 188.01C217.23 220.84 190.73 247.49 158.1 247.49C125.46 247.49 98.96 220.84 98.96 188.01C98.96 155.18 125.46 128.53 158.1 128.53C190.73 128.53 217.23 155.18 217.23 188.01Z" id="i1v4M8ai49" fill="white" fill-opacity="1" filter="url(#shadow9740743)"></path></g><use xlink:href="#a6s03QniF" opacity="1" fill="#ffffff" fill-opacity="1"></use></g><g><g><filter id="shadow15881340" x="199.78" y="222.3" width="61.94" height="64.05" filterUnits="userSpaceOnUse" primitiveUnits="userSpaceOnUse"><feFlood></feFlood><feComposite in2="SourceAlpha" operator="in"></feComposite><feGaussianBlur stdDeviation="1"></feGaussianBlur><feOffset dx="1" dy="1" result="afterOffset"></feOffset><feFlood flood-color="#000000" flood-opacity="0.5"></feFlood><feComposite in2="afterOffset" operator="in"></feComposite><feMorphology operator="dilate" radius="1"></feMorphology><feComposite in2="SourceAlpha" operator="out"></feComposite></filter><path d="M251.72 253.83C251.72 266.26 242.1 276.36 230.25 276.36C218.4 276.36 208.78 266.26 208.78 253.83C208.78 241.4 218.4 231.3 230.25 231.3C242.1 231.3 251.72 241.4 251.72 253.83Z" id="f4UPZnt2Jf" fill="white" fill-opacity="1" filter="url(#shadow15881340)"></path></g><use xlink:href="#e1MPcmROUV" opacity="1" fill="#ffffff" fill-opacity="1"></use></g><g><g><filter id="shadow8409342" x="212.45" y="202.24" width="34.13" height="33.43" filterUnits="userSpaceOnUse" primitiveUnits="userSpaceOnUse"><feFlood></feFlood><feComposite in2="SourceAlpha" operator="in"></feComposite><feGaussianBlur stdDeviation="1"></feGaussianBlur><feOffset dx="1" dy="1" result="afterOffset"></feOffset><feFlood flood-color="#000000" flood-opacity="0.5"></feFlood><feComposite in2="afterOffset" operator="in"></feComposite><feMorphology operator="dilate" radius="1"></feMorphology><feComposite in2="SourceAlpha" operator="out"></feComposite></filter><path d="M236.58 218.46C236.58 222.44 233.19 225.67 229.02 225.67C224.84 225.67 221.45 222.44 221.45 218.46C221.45 214.48 224.84 211.24 229.02 211.24C233.19 211.24 236.58 214.48 236.58 218.46Z" id="aRah83MFx" fill="white" fill-opacity="1" filter="url(#shadow8409342)"></path></g><use xlink:href="#a1FiuwKZ2I" opacity="1" fill="#ffffff" fill-opacity="1"></use></g><g><g><filter id="shadow3552055" x="173.88" y="237.61" width="34.13" height="33.43" filterUnits="userSpaceOnUse" primitiveUnits="userSpaceOnUse"><feFlood></feFlood><feComposite in2="SourceAlpha" operator="in"></feComposite><feGaussianBlur stdDeviation="1"></feGaussianBlur><feOffset dx="1" dy="1" result="afterOffset"></feOffset><feFlood flood-color="#000000" flood-opacity="0.5"></feFlood><feComposite in2="afterOffset" operator="in"></feComposite><feMorphology operator="dilate" radius="1"></feMorphology><feComposite in2="SourceAlpha" operator="out"></feComposite></filter><path d="M198.01 253.83C198.01 257.81 194.62 261.05 190.45 261.05C186.27 261.05 182.88 257.81 182.88 253.83C182.88 249.85 186.27 246.61 190.45 246.61C194.62 246.61 198.01 249.85 198.01 253.83Z" id="bu7WnF8O3" fill="white" fill-opacity="1" filter="url(#shadow3552055)"></path></g><use xlink:href="#c1oalY3Ap5" opacity="1" fill="#ffffff" fill-opacity="1"></use></g><g><g><filter id="shadow5064525" x="217.2" y="150.15" width="70.04" height="71.09" filterUnits="userSpaceOnUse" primitiveUnits="userSpaceOnUse"><feFlood></feFlood><feComposite in2="SourceAlpha" operator="in"></feComposite><feGaussianBlur stdDeviation="1"></feGaussianBlur><feOffset dx="1" dy="1" result="afterOffset"></feOffset><feFlood flood-color="#000000" flood-opacity="0.5"></feFlood><feComposite in2="afterOffset" operator="in"></feComposite><feMorphology operator="dilate" radius="1"></feMorphology><feComposite in2="SourceAlpha" operator="out"></feComposite></filter><path d="M277.24 185.2C277.24 199.57 265.8 211.24 251.72 211.24C237.63 211.24 226.2 199.57 226.2 185.2C226.2 170.82 237.63 159.15 251.72 159.15C265.8 159.15 277.24 170.82 277.24 185.2Z" id="b2eEaRtr1x" fill="white" fill-opacity="1" filter="url(#shadow5064525)"></path></g><use xlink:href="#be04j1byN" opacity="1" fill="#ffffff" fill-opacity="1"></use></g><g><g><filter id="shadow4523832" x="237.09" y="209.46" width="33.78" height="34.49" filterUnits="userSpaceOnUse" primitiveUnits="userSpaceOnUse"><feFlood></feFlood><feComposite in2="SourceAlpha" operator="in"></feComposite><feGaussianBlur stdDeviation="1"></feGaussianBlur><feOffset dx="1" dy="1" result="afterOffset"></feOffset><feFlood flood-color="#000000" flood-opacity="0.5"></feFlood><feComposite in2="afterOffset" operator="in"></feComposite><feMorphology operator="dilate" radius="1"></feMorphology><feComposite in2="SourceAlpha" operator="out"></feComposite></filter><path d="M260.87 226.2C260.87 230.47 257.56 233.94 253.48 233.94C249.4 233.94 246.09 230.47 246.09 226.2C246.09 221.93 249.4 218.46 253.48 218.46C257.56 218.46 260.87 221.93 260.87 226.2Z" id="i3gV0lD8XB" fill="white" fill-opacity="1" filter="url(#shadow4523832)"></path></g><use xlink:href="#a2n0nxNm8x" opacity="1" fill="#ffffff" fill-opacity="1"></use></g><g><g><filter id="shadow9669064" x="204.88" y="140.44" width="34.13" height="33.43" filterUnits="userSpaceOnUse" primitiveUnits="userSpaceOnUse"><feFlood></feFlood><feComposite in2="SourceAlpha" operator="in"></feComposite><feGaussianBlur stdDeviation="1"></feGaussianBlur><feOffset dx="1" dy="1" result="afterOffset"></feOffset><feFlood flood-color="#000000" flood-opacity="0.5"></feFlood><feComposite in2="afterOffset" operator="in"></feComposite><feMorphology operator="dilate" radius="1"></feMorphology><feComposite in2="SourceAlpha" operator="out"></feComposite></filter><path d="M229.02 156.66C229.02 160.64 225.63 163.87 221.45 163.87C217.27 163.87 213.88 160.64 213.88 156.66C213.88 152.67 217.27 149.44 221.45 149.44C225.63 149.44 229.02 152.67 229.02 156.66Z" id="b2cwzLyZ8e" fill="white" fill-opacity="1" filter="url(#shadow9669064)"></path></g><use xlink:href="#bwcb4xjmP" opacity="1" fill="#ffffff" fill-opacity="1"></use></g><g><g><filter id="shadow16392064" x="192.56" y="222.3" width="29.03" height="29.21" filterUnits="userSpaceOnUse" primitiveUnits="userSpaceOnUse"><feFlood></feFlood><feComposite in2="SourceAlpha" operator="in"></feComposite><feGaussianBlur stdDeviation="1"></feGaussianBlur><feOffset dx="1" dy="1" result="afterOffset"></feOffset><feFlood flood-color="#000000" flood-opacity="0.5"></feFlood><feComposite in2="afterOffset" operator="in"></feComposite><feMorphology operator="dilate" radius="1"></feMorphology><feComposite in2="SourceAlpha" operator="out"></feComposite></filter><path d="M211.59 236.41C211.59 239.22 209.35 241.51 206.58 241.51C203.81 241.51 201.56 239.22 201.56 236.41C201.56 233.59 203.81 231.3 206.58 231.3C209.35 231.3 211.59 233.59 211.59 236.41Z" id="b53JJt5Hj" fill="white" fill-opacity="1" filter="url(#shadow16392064)"></path></g><use xlink:href="#a1KLITT32x" opacity="1" fill="#ffffff" fill-opacity="1"></use></g></g></g></svg>